<svg width="42" height="43" viewBox="0 0 42 43" fill="none" xmlns="http://www.w3.org/2000/svg">
<path fill-rule="evenodd" clip-rule="evenodd" d="M42 21.477C42 32.9895 32.5979 42.3223 21 42.3223C9.40203 42.3223 0 32.9895 0 21.477C0 9.96448 9.40203 0.631714 21 0.631714C32.5979 0.631714 42 9.96448 42 21.477ZM21.0979 24.4397C24.9684 19.0065 25.1392 15.7136 21.0979 9.89629C16.9793 15.8378 17.5103 18.987 21.0979 24.4397ZM19.2599 31.5172C19.8751 24.8908 18.3645 21.9544 11.9343 18.9222C11.3603 26.1117 13.4064 28.5757 19.2599 31.5172ZM22.9608 31.5172C22.3456 24.8908 23.8563 21.9544 30.2865 18.9222C30.8604 26.1117 28.8144 28.5757 22.9608 31.5172Z" fill="black"/>
</svg>
